<mxfile host="app.diagrams.net" modified="2021-05-19T08:19:39.028Z" agent="5.0 (X11)" etag="Xb6cIX-pNJHZVDr0Ne2f" version="14.6.13" type="github">
  <diagram id="b23E7qjBDzQLKkkTdhQo" name="Page-1">
    <mxGraphModel dx="1328" dy="531" grid="1" gridSize="10" guides="1" tooltips="1" connect="1" arrows="1" fold="1" page="1" pageScale="1" pageWidth="900" pageHeight="200" math="0" shadow="0">
      <root>
        <mxCell id="0" />
        <mxCell id="1" parent="0" />
        <mxCell id="RTyulyGa0lZzDl1yFRsJ-1" value="" style="rounded=0;whiteSpace=wrap;html=1;" parent="1" vertex="1">
          <mxGeometry x="50" y="50" width="250" height="120" as="geometry" />
        </mxCell>
        <mxCell id="RTyulyGa0lZzDl1yFRsJ-2" value="App C omponent" style="rounded=1;whiteSpace=wrap;html=1;fillColor=#dae8fc;gradientColor=#ffffff;gradientDirection=east;" parent="1" vertex="1">
          <mxGeometry x="60" y="64" width="231" height="26" as="geometry" />
        </mxCell>
        <mxCell id="RTyulyGa0lZzDl1yFRsJ-3" value="" style="rounded=0;whiteSpace=wrap;html=1;" parent="1" vertex="1">
          <mxGeometry x="330" y="50" width="250" height="180" as="geometry" />
        </mxCell>
        <mxCell id="RTyulyGa0lZzDl1yFRsJ-4" value="CommentBox Component" style="rounded=1;whiteSpace=wrap;html=1;fillColor=#dae8fc;strokeColor=#6c8ebf;gradientColor=#ffffff;gradientDirection=east;" parent="1" vertex="1">
          <mxGeometry x="340" y="64" width="230" height="26" as="geometry" />
        </mxCell>
        <mxCell id="RTyulyGa0lZzDl1yFRsJ-12" value="Shows the Comment List inside of it" style="rounded=1;whiteSpace=wrap;html=1;gradientDirection=west;" parent="1" vertex="1">
          <mxGeometry x="60" y="130" width="231" height="26" as="geometry" />
        </mxCell>
        <mxCell id="RTyulyGa0lZzDl1yFRsJ-13" value="Shows the Comment Box inside of it" style="rounded=1;whiteSpace=wrap;html=1;gradientDirection=west;fillColor=none;" parent="1" vertex="1">
          <mxGeometry x="60" y="99" width="231" height="26" as="geometry" />
        </mxCell>
        <mxCell id="RTyulyGa0lZzDl1yFRsJ-15" value="Shows a text area and a button" style="rounded=1;whiteSpace=wrap;html=1;gradientDirection=west;fillColor=none;" parent="1" vertex="1">
          <mxGeometry x="340" y="99" width="230" height="26" as="geometry" />
        </mxCell>
        <mxCell id="RTyulyGa0lZzDl1yFRsJ-16" value="Users can enter input into the text area and submit it" style="rounded=1;whiteSpace=wrap;html=1;gradientDirection=west;" parent="1" vertex="1">
          <mxGeometry x="340" y="130" width="231" height="40" as="geometry" />
        </mxCell>
        <mxCell id="RTyulyGa0lZzDl1yFRsJ-17" value="When the input is submitted, textarea should get emptied" style="rounded=1;whiteSpace=wrap;html=1;gradientDirection=west;" parent="1" vertex="1">
          <mxGeometry x="340" y="174" width="231" height="40" as="geometry" />
        </mxCell>
        <mxCell id="RTyulyGa0lZzDl1yFRsJ-20" value="" style="rounded=0;whiteSpace=wrap;html=1;" parent="1" vertex="1">
          <mxGeometry x="50.5" y="270" width="250" height="130" as="geometry" />
        </mxCell>
        <mxCell id="RTyulyGa0lZzDl1yFRsJ-21" value="Components Reducer" style="rounded=1;whiteSpace=wrap;html=1;fillColor=#dae8fc;gradientColor=#ffffff;gradientDirection=east;" parent="1" vertex="1">
          <mxGeometry x="60.5" y="284" width="231" height="26" as="geometry" />
        </mxCell>
        <mxCell id="RTyulyGa0lZzDl1yFRsJ-22" value="Doesn&#39;t throw an error if it gets an action with any other type" style="rounded=1;whiteSpace=wrap;html=1;gradientDirection=west;" parent="1" vertex="1">
          <mxGeometry x="59.5" y="360" width="231" height="30" as="geometry" />
        </mxCell>
        <mxCell id="RTyulyGa0lZzDl1yFRsJ-23" value="Properly hands actions with a type of &#39;SAVE_COMMENTS&#39;" style="rounded=1;whiteSpace=wrap;html=1;gradientDirection=west;fillColor=none;" parent="1" vertex="1">
          <mxGeometry x="60.5" y="319" width="231" height="31" as="geometry" />
        </mxCell>
        <mxCell id="RTyulyGa0lZzDl1yFRsJ-24" value="" style="rounded=0;whiteSpace=wrap;html=1;" parent="1" vertex="1">
          <mxGeometry x="330" y="269.5" width="250" height="130" as="geometry" />
        </mxCell>
        <mxCell id="RTyulyGa0lZzDl1yFRsJ-25" value="SaveComment Action" style="rounded=1;whiteSpace=wrap;html=1;fillColor=#dae8fc;gradientColor=#ffffff;gradientDirection=east;" parent="1" vertex="1">
          <mxGeometry x="340" y="283.5" width="231" height="26" as="geometry" />
        </mxCell>
        <mxCell id="RTyulyGa0lZzDl1yFRsJ-26" value="Produces an action that has a payload of the new comment&#39;s text" style="rounded=1;whiteSpace=wrap;html=1;gradientDirection=west;" parent="1" vertex="1">
          <mxGeometry x="339" y="350" width="231" height="40" as="geometry" />
        </mxCell>
        <mxCell id="RTyulyGa0lZzDl1yFRsJ-27" value="Has a type of &#39;SAVE_COMMENT&#39;" style="rounded=1;whiteSpace=wrap;html=1;gradientDirection=west;fillColor=none;" parent="1" vertex="1">
          <mxGeometry x="340" y="318.5" width="231" height="21.5" as="geometry" />
        </mxCell>
        <mxCell id="RTyulyGa0lZzDl1yFRsJ-28" value="" style="rounded=0;whiteSpace=wrap;html=1;" parent="1" vertex="1">
          <mxGeometry x="590" y="50" width="250" height="130" as="geometry" />
        </mxCell>
        <mxCell id="RTyulyGa0lZzDl1yFRsJ-29" value="CommentList Component" style="rounded=1;whiteSpace=wrap;html=1;fillColor=#dae8fc;gradientColor=#ffffff;gradientDirection=east;" parent="1" vertex="1">
          <mxGeometry x="600" y="64" width="231" height="26" as="geometry" />
        </mxCell>
        <mxCell id="RTyulyGa0lZzDl1yFRsJ-30" value="Text from each comment is visible" style="rounded=1;whiteSpace=wrap;html=1;gradientDirection=west;" parent="1" vertex="1">
          <mxGeometry x="599" y="140" width="231" height="30" as="geometry" />
        </mxCell>
        <mxCell id="RTyulyGa0lZzDl1yFRsJ-31" value="Shows one &#39;li&#39; element per comment" style="rounded=1;whiteSpace=wrap;html=1;gradientDirection=west;fillColor=none;" parent="1" vertex="1">
          <mxGeometry x="600" y="99" width="231" height="31" as="geometry" />
        </mxCell>
        <mxCell id="RTyulyGa0lZzDl1yFRsJ-32" value="&lt;b&gt;&lt;font style=&quot;font-size: 22px&quot;&gt;Testing Design&lt;/font&gt;&lt;i&gt;&lt;font style=&quot;font-size: 22px&quot;&gt; - What Do We Care About?&lt;/font&gt;&lt;/i&gt;&lt;/b&gt;" style="text;html=1;align=center;verticalAlign=middle;resizable=0;points=[];autosize=1;strokeColor=none;" parent="1" vertex="1">
          <mxGeometry x="224" y="10" width="480" height="20" as="geometry" />
        </mxCell>
      </root>
    </mxGraphModel>
  </diagram>
</mxfile>
